<?xml version="1.0" encoding="iso-8859-1"?>
<!-- Generator: Adobe Illustrator 16.0.4, SVG Export Plug-In . SVG Version: 6.00 Build 0)  -->
<!DOCTYPE svg PUBLIC "-//W3C//DTD SVG 1.1//EN" "http://www.w3.org/Graphics/SVG/1.1/DTD/svg11.dtd">
<svg version="1.1" id="Capa_1" xmlns="http://www.w3.org/2000/svg" xmlns:xlink="http://www.w3.org/1999/xlink" x="0px" y="0px"
	 width="15px" height="14.506px" viewBox="0 0 15 14.506" style="enable-background:new 0 0 15 14.506;" xml:space="preserve">
<path style="fill:#010002;" d="M7.501,0L0,5.6v8.906h15V5.6L7.501,0z M5.426,3.996C5.646,3.594,5.949,3.291,6.334,3.09
	c0.384-0.203,0.822-0.305,1.317-0.305c0.418,0,0.791,0.082,1.117,0.244c0.326,0.164,0.574,0.395,0.747,0.695
	c0.171,0.301,0.258,0.629,0.258,0.984c0,0.424-0.131,0.807-0.392,1.15c-0.328,0.432-0.747,0.648-1.26,0.648
	c-0.138,0-0.241-0.023-0.312-0.072c-0.069-0.049-0.117-0.119-0.14-0.213C7.476,6.412,7.248,6.508,6.992,6.508
	c-0.276,0-0.505-0.096-0.687-0.285c-0.182-0.191-0.273-0.445-0.273-0.76c0-0.393,0.109-0.748,0.329-1.07
	C6.628,4,6.968,3.803,7.384,3.803c0.296,0,0.515,0.113,0.655,0.34l0.063-0.277h0.659L8.385,5.654C8.361,5.768,8.35,5.84,8.35,5.873
	c0,0.043,0.009,0.072,0.028,0.094C8.396,5.988,8.42,5.998,8.446,5.998c0.081,0,0.184-0.047,0.31-0.145
	c0.17-0.125,0.307-0.297,0.411-0.508c0.105-0.213,0.158-0.434,0.158-0.662c0-0.408-0.147-0.75-0.443-1.027
	C8.585,3.383,8.171,3.244,7.641,3.244c-0.451,0-0.833,0.092-1.146,0.277C6.182,3.703,5.946,3.963,5.785,4.297
	c-0.158,0.332-0.237,0.68-0.237,1.041c0,0.35,0.09,0.67,0.266,0.957C5.992,6.584,6.24,6.793,6.56,6.926
	c0.32,0.131,0.687,0.197,1.099,0.197c0.396,0,0.738-0.055,1.025-0.166C8.97,6.846,9.2,6.682,9.375,6.459h0.53
	C9.739,6.797,9.484,7.061,9.141,7.254C8.746,7.473,8.265,7.582,7.699,7.582c-0.55,0-1.023-0.092-1.422-0.277
	c-0.4-0.186-0.696-0.459-0.892-0.82C5.191,6.123,5.095,5.729,5.095,5.303C5.095,4.836,5.204,4.4,5.426,3.996z M0.529,5.777
	l5.534,3.711l-5.534,4.283V5.777z M0.949,14.057l6.552-5.07l6.55,5.07H0.949z M14.471,13.771L8.937,9.488l5.534-3.711V13.771z
	 M7.771,4.404c0.088,0.1,0.132,0.244,0.132,0.432c0,0.168-0.033,0.35-0.097,0.543c-0.063,0.195-0.14,0.344-0.228,0.445
	C7.518,5.895,7.454,5.947,7.391,5.98c-0.083,0.047-0.171,0.07-0.266,0.07C6.998,6.051,6.893,6,6.806,5.9
	c-0.085-0.1-0.127-0.254-0.127-0.465c0-0.158,0.03-0.34,0.092-0.545s0.153-0.361,0.274-0.473c0.122-0.111,0.254-0.166,0.396-0.166
	C7.574,4.252,7.685,4.303,7.771,4.404z"/>
<g>
</g>
<g>
</g>
<g>
</g>
<g>
</g>
<g>
</g>
<g>
</g>
<g>
</g>
<g>
</g>
<g>
</g>
<g>
</g>
<g>
</g>
<g>
</g>
<g>
</g>
<g>
</g>
<g>
</g>
</svg>
