<?xml version="1.0" encoding="utf-8"?>
<!-- Generator: Adobe Illustrator 16.0.0, SVG Export Plug-In . SVG Version: 6.00 Build 0)  -->
<!DOCTYPE svg PUBLIC "-//W3C//DTD SVG 1.1//EN" "http://www.w3.org/Graphics/SVG/1.1/DTD/svg11.dtd">
<svg version="1.1" id="Layer_1" xmlns="http://www.w3.org/2000/svg" xmlns:xlink="http://www.w3.org/1999/xlink" x="0px" y="0px"
	 width="48px" height="48px" viewBox="0 0 48 48" enable-background="new 0 0 48 48" xml:space="preserve">
<g>
	<path d="M39.328,3.803H8.672c-4.24,0-7.677,3.438-7.677,7.677v25.646c0,4.24,3.437,7.677,7.677,7.677h30.656
		c4.24,0,7.677-3.437,7.677-7.677V11.48C47.005,7.241,43.568,3.803,39.328,3.803z M39.313,7.722c1.102,0,1.994,0.893,1.994,1.994
		s-0.893,1.995-1.994,1.995s-1.996-0.894-1.996-1.995S38.211,7.722,39.313,7.722z M43.05,37.094c0,2.074-1.728,3.754-3.803,3.754
		H8.621c-2.074,0-3.803-1.68-3.803-3.754v-17.95c0-2.284,1.852-4.135,4.135-4.135h29.962c2.283,0,4.135,1.851,4.135,4.135V37.094z"
		/>
	<path d="M26.515,27.382c-0.765,0.764-0.765,1.986,0,2.75l1.24,1.225h-8.315c-1.081,0-1.957,0.896-1.957,1.978
		c0,1.08,0.876,1.977,1.957,1.977h7.98l-1.241,1.237c-0.765,0.764-0.765,2,0,2.764c0.382,0.383,0.883,0.572,1.384,0.572
		c0.5,0,1.001-0.191,1.383-0.573c0,0,3.561-3.562,4.748-4.749c0.765-0.764,0.765-2.003,0-2.767l-4.412-4.413
		C28.518,26.618,27.277,26.618,26.515,27.382z"/>
	<path d="M18.923,29.112c0.382,0.382,0.883,0.573,1.384,0.573c0.5,0,1.001-0.191,1.383-0.573c0.764-0.764,0.764-1.975,0-2.738
		l-1.24-1.213h7.98c1.08,0,1.956-0.897,1.956-1.978c0-1.081-0.876-1.978-1.956-1.978h-8.316l1.24-1.248
		c0.765-0.764,0.765-2.007,0-2.771c-0.764-0.765-2.003-0.766-2.767-0.002l-4.413,4.412c-0.764,0.764-0.764,2.002,0,2.767
		C15.36,25.551,18.923,29.112,18.923,29.112z"/>
</g>
</svg>
